<?xml version="1.0" encoding="utf-8"?>
<!-- Generator: Adobe Illustrator 23.0.3, SVG Export Plug-In . SVG Version: 6.00 Build 0)  -->
<svg version="1.1" id="Layer_1" xmlns="http://www.w3.org/2000/svg" xmlns:xlink="http://www.w3.org/1999/xlink" x="0px" y="0px"
	 viewBox="0 0 595.3 841.9" style="enable-background:new 0 0 595.3 841.9;" xml:space="preserve">
<style type="text/css">
	.st0{fill:#69737A;}
	.st1{fill:#F26230;}
	.st2{fill:#57656F;}
	.st3{font-family:'WeissBT-ExtraBold';}
	.st4{font-size:56.9954px;}
</style>
<g>
	<path class="st0" d="M479.5,283.9c-0.1-29-9.9-39.5-36.8-39.4c-15.7,0-31.4,0.1-47.1,0.1c0.2,0.6,0.3,1.2,0.3,1.8
		c0,3.9,0,7.7-0.6,11.6c-0.1,0.7-0.3,1.4-0.5,2c15.7-0.1,31.4-0.2,47.1-0.3c16.1-0.1,22.9,5.4,22.7,23.5
		c-0.6,56.9-0.3,113.9,0.5,170.8c0.2,16.9-5.8,23-21.3,22.9c-15.2-0.1-30.4-0.1-45.7,0c0,0,0,0.1,0,0.1c-0.5,5.1-0.9,10.2-1.1,15.3
		c15.3-0.1,30.7-0.1,46-0.2c27.1-0.1,37-10.6,36.9-39.3C479.9,396.5,479.8,340.2,479.5,283.9z"/>
	<path class="st0" d="M183.4,476.5c-13.2,0.1-26.5,0.3-39.7,0.5c-17.1,0.3-24.2-5.8-24-24.6c0.5-56.2,0.3-112.5-0.5-168.7
		c-0.2-17.6,6.2-24,22.6-24c13.4,0,26.8,0,40.2,0c-0.8-4.4-1.1-8.8-1.6-13.3c-0.1-0.7,0-1.4,0.1-2c-14,0.1-28,0.1-41.9,0.2
		c-23.7,0.2-33.6,10.9-33.6,36.2c0,58.3,0.2,116.7,0.6,175c0.2,26.3,10,36.4,35.3,36.4c14.5,0,29-0.1,43.5-0.1
		C184,486.8,183.6,481.7,183.4,476.5z"/>
	<path class="st1" d="M237.9,481.8c0-16.9,0.3-33.9-0.1-50.8c-0.3-14.2,5.5-19.7,17.6-13.3C287.8,435,320,452.9,352,471
		c11.6,6.6,10.3,14.6-0.7,20.7c-32.2,17.8-64.5,35.4-96.8,52.9c-11.9,6.4-16.6,0.7-16.6-11.9C237.9,515.7,237.9,498.8,237.9,481.8z"
		/>
	<path class="st2" d="M292.9,385.2c24.8,0,49.6-0.1,74.5,0.1c5.9,0,14.5-2.4,15,7.4c0.5,9.8-7.8,8.7-14,8.8
		c-50.3,0.1-100.6,0.1-150.8,0c-6.2,0-14.6,1-14.1-8.7c0.5-9.8,9.1-7.3,15-7.4C243.2,385.1,268.1,385.2,292.9,385.2z"/>
</g>
<text transform="matrix(0.9427 0 0 1 203.582 636.6964)"><tspan x="0" y="0" class="st1 st3 st4">MCQ</tspan><tspan x="140.7" y="0" class="st0 st3 st4">fy</tspan></text>
<path class="st0" d="M408.1,377.9c0,54.9,0.1,109.9,0,164.8c-0.1,28.5-9.9,38.8-37.3,38.9c-53.1,0.1-106.1,0.1-159.2,0
	c-27-0.1-36.9-10.6-36.9-39.3c-0.1-109.9-0.1-219.8,0-329.6c0-26.8,9.6-37.3,34.4-37.4c55-0.2,110-0.2,165,0
	c23.8,0.1,33.9,10.6,34,35.8C408.2,266.7,408.1,322.3,408.1,377.9z M189.2,376.4c0,55.6,0.3,111.1-0.2,166.7
	c-0.1,16.4,5.6,22.9,21.5,22.7c53.7-0.7,107.3-0.8,161,0c17.1,0.3,22.3-6.9,22.3-24c-0.4-109.1-0.4-218.2,0-327.3
	c0.1-17.4-6-24.3-22.5-24.1c-53,0.6-106.1,0.7-159.1,0c-17.7-0.3-23.5,7.3-23.3,25.4C189.6,269.3,189.2,322.9,189.2,376.4z"/>
<ellipse class="st1" cx="222.8" cy="243.2" rx="22.4" ry="21.5"/>
<ellipse class="st1" cx="223.3" cy="357.1" rx="22.4" ry="21.5"/>
<ellipse class="st1" cx="354.5" cy="357.1" rx="22.4" ry="21.5"/>
<ellipse class="st1" cx="354.5" cy="243.7" rx="22.4" ry="21.5"/>
</svg>
