<svg xmlns="http://www.w3.org/2000/svg" viewBox="0 0 524.64 67.22"><defs><style>.cls-1{fill:#fff;}</style></defs><title>Asset 1</title><g id="Layer_2" data-name="Layer 2"><g id="Layer_1-2" data-name="Layer 1"><path d="M46.22,40.86H54.8L56.1,30.8H46.17c0-2.69-.13-5.28,0-7.86a3.8,3.8,0,0,1,3.95-3.44c2,0,4.07,0,6.2,0V10.38c-1.88-.14-3.81-.43-5.74-.41-3.53,0-7,.49-10.09,2.46a9.75,9.75,0,0,0-4.67,8.06c-.18,3.07-.12,6.15-.16,9.23v1H26.83v10h8.83V66.71c-.33,0-.67.06-1,.06h-30c-3,0-4.61-1.61-4.61-4.57C0,43,.08,23.88,0,4.72A4.46,4.46,0,0,1,4.72,0C23.88.09,43,0,62.19,0c3,0,4.6,1.62,4.6,4.57V62.2a4.18,4.18,0,0,1-4.53,4.57c-5.32,0-10.63,0-16,0Z"/><path d="M524.64,33.89q0,12,0,24c0,4.56-2.41,7.94-6.42,9a10.29,10.29,0,0,1-2.6.32q-24.22,0-48.46,0a8.72,8.72,0,0,1-9.06-9.06V9.92c0-5.45,3.57-9.22,9-9.23,15.47,0,30.95,0,46.43,0,2.35,0,4.72-.17,6.84,1.18,2.52,1.59,4.17,3.8,4.21,6.83.09,8.08.05,16.15.06,24.23v1ZM495.22,56.8c0-.38,0-.66,0-.94,0-5.6,0-11.19,0-16.79a5.66,5.66,0,0,1,2.24-4.56A4.77,4.77,0,0,1,505.23,37a9.4,9.4,0,0,1,.24,2.49c0,5.36,0,10.71,0,16.07v1.25h10.64a2.32,2.32,0,0,0,.09-.45c0-6,.08-11.91,0-17.87a14.25,14.25,0,0,0-3.94-10.11c-4-4.17-13.51-3.78-17,1.7V26.12H484.51V56.8ZM469,26.19v30.6h10.68V26.19Zm11-9a5.61,5.61,0,0,0-5.63-5.75,5.73,5.73,0,0,0-5.69,5.61,5.81,5.81,0,0,0,5.68,5.78A5.67,5.67,0,0,0,480,17.2Z"/><path d="M226.15,66.58c-5.92,0-11.84-.12-17.75,0a15.18,15.18,0,0,1-15.3-12.93,12,12,0,0,1-.08-1.8c0-12.39,0-24.79,0-37.18A14.8,14.8,0,0,1,204.4.59a17.22,17.22,0,0,1,3.91-.48q17.76,0,35.51,0c7.68,0,13.47,4.51,15.3,11.93a13.16,13.16,0,0,1,.37,3.07q0,18.3,0,36.59a15,15,0,0,1-14.63,14.89c-6.24.08-12.48,0-18.72,0Zm-.38-40.78a31.68,31.68,0,0,1-21.51-11.09c-2,5.46-1.47,10.12,3.14,13.87l-.17.25-4.12-1.24c0,5.38,3.35,8.21,7.94,10.22l-4.43.46c1.83,3.95,4.8,6.07,9.69,6.82-4.64,3.15-9.45,5.17-15.1,4.46a11.75,11.75,0,0,0,1.5.82c7.64,3.57,15.48,4.71,23.68,2.1,12-3.8,20.06-17.31,19.92-27.58a3.14,3.14,0,0,1,1.16-2.66c1.47-1.31,2.79-2.8,4.37-4.42l-5.79,1.63-.13-.34c1.71-1.44,3.34-2.93,3.91-5.06-1.88.65-3.7,1.31-5.54,1.88a1.45,1.45,0,0,1-1.16-.28,11.45,11.45,0,0,0-6.21-2.8,10.7,10.7,0,0,0-10,5.11A10.88,10.88,0,0,0,225.77,25.8Z"/><path d="M283.15,33.54c0-5.92.1-11.84,0-17.75A15.12,15.12,0,0,1,295.29.59a20.32,20.32,0,0,1,3.57-.3q17.7,0,35.39,0a15.15,15.15,0,0,1,15.41,15.41V51.41a15.07,15.07,0,0,1-15.28,15.37q-18.18.06-36.36,0a15,15,0,0,1-14.84-14.54c-.09-3.11,0-6.23,0-9.35Zm17,25.82c2.72-1.42,5.21-2.76,7.75-4a3.11,3.11,0,0,1,1.88-.22,28.13,28.13,0,0,0,14-.24c10.53-2.94,18.9-12.76,18.06-24.58A23,23,0,0,0,335.6,16a26.33,26.33,0,0,0-30.77-5.65C296.64,14.41,291.72,21,291,30.18c-.64,7.83,2.45,14.33,8.33,19.49a2.14,2.14,0,0,1,.83,1.84C300.1,54.05,300.12,56.6,300.12,59.36Z"/><path d="M377,33.58c0-6,.09-12.08,0-18.12A15.08,15.08,0,0,1,392.08.29c11.72,0,23.44,0,35.15,0,4.76,0,8.87,1.31,12.18,4.82a14.08,14.08,0,0,1,4.06,9.71c.09,12.52.2,25,0,37.55a14.86,14.86,0,0,1-15.17,14.45q-18.06,0-36.11,0A14.93,14.93,0,0,1,377,51.93C376.93,45.82,377,39.7,377,33.58ZM385.1,59c4.29-1.38,8.34-2.69,12.4-4a2.07,2.07,0,0,1,1.43.06,25.21,25.21,0,0,0,16.63,2.26,24.83,24.83,0,0,0-7.74-49A23.85,23.85,0,0,0,392,16.42c-7.24,8.26-8.39,18.89-3.24,28.62a2.57,2.57,0,0,1,.18,2.24C387.69,51.08,386.44,54.9,385.1,59Z"/><path d="M132.33,66.58c-6,0-12.07-.08-18.11,0A15.07,15.07,0,0,1,99.15,51.79c0-12.47,0-24.95.09-37.42a14.68,14.68,0,0,1,13-14.09A35.81,35.81,0,0,1,115.87.1q17,0,34.06,0c6.39,0,11.21,2.79,14.16,8.53a14.48,14.48,0,0,1,1.56,6.57q0,18.29,0,36.58a15,15,0,0,1-14.84,14.81c-6.16,0-12.32,0-18.48,0ZM108.06,32.92H108c0,3.52,0,7,0,10.55a14.34,14.34,0,0,0,.22,2.86A14.13,14.13,0,0,0,122.55,57.9h19.78a14.11,14.11,0,0,0,14.46-14.45c0-6.72,0-13.44,0-20.15A14.05,14.05,0,0,0,146.69,9.64a13.74,13.74,0,0,0-3.52-.6c-7.67,0-15.35-.1-23,.19-6,.24-11.77,6.2-12.06,12.19C107.91,25.24,108.06,29.09,108.06,32.92Z"/><path d="M317.94,39l-6.69-8.24-12.47,7.75-.11-.11c4.48-4.76,8.95-9.53,13.51-14.37l6.69,8.47,12.38-8.36.11.12Z"/><path d="M391,53.27c.76-2.3,1.44-4.46,2.2-6.58a2.06,2.06,0,0,0-.18-2c-4.19-7-4.91-14.2-1.13-21.62A21.22,21.22,0,1,1,415.28,53.7a21,21,0,0,1-14.91-2.21,3.37,3.37,0,0,0-3.11-.28C395.26,52,393.19,52.56,391,53.27Zm11.75-31.7a3.23,3.23,0,0,0-3.41,1.87,7.11,7.11,0,0,0-.76,6.32,24.59,24.59,0,0,0,13,13.57c2,.91,4.15,1.86,6.54,1.5,2.71-.4,4.72-2,5.19-4.28.29-1.41,0-1.91-1.26-2.55l-2-1c-3-1.5-3.07-1.54-5.07,1.14a1.66,1.66,0,0,1-2.43.55,17,17,0,0,1-6.53-5.31c-1.52-2.06-1.54-2.1.09-4a2.26,2.26,0,0,0,.35-2.73c-.57-1.18-1.06-2.4-1.53-3.63C404.44,22,403.88,21.24,402.72,21.57Z"/><path d="M132.44,13.72c3.67,0,7.36-.09,11,0a9.06,9.06,0,0,1,8.74,9.13q0,10.56,0,21.11a9.13,9.13,0,0,1-9.2,9.47c-7.11.1-14.23.08-21.35,0A9.29,9.29,0,0,1,112.43,44q0-10.38,0-20.75a9.32,9.32,0,0,1,9.44-9.53c3.52-.06,7,0,10.56,0Zm-.1,32.52A12.67,12.67,0,1,0,119.68,33.6,12.66,12.66,0,0,0,132.34,46.24Zm13.08-22.89a2.83,2.83,0,0,0,3-2.88,2.87,2.87,0,0,0-2.88-3,3,3,0,0,0-3,2.91A2.91,2.91,0,0,0,145.42,23.35Z"/><path class="cls-1" d="M140.54,33.58a8.15,8.15,0,0,0-8.08-8.2,8.24,8.24,0,0,0-8.31,8.13,8.34,8.34,0,0,0,8.18,8.3A8.24,8.24,0,0,0,140.54,33.58Z"/><path d="M140.54,33.58a8.24,8.24,0,0,1-8.21,8.23,8.34,8.34,0,0,1-8.18-8.3,8.24,8.24,0,0,1,8.31-8.13A8.15,8.15,0,0,1,140.54,33.58Z"/></g></g></svg>